# xmcd
#
# Track frame offsets: 
#        150
#        13630
#        27762
#        42697
#        57725
#        71567
#        84790
#        99317
#        112392
#        126190
#        140575
#        153597
#        168520
#        181970
#        196837
#        209815
#        223385
#        236750
#        250045
#        262975
#
# Disc length: 3691 seconds
#
# Revision: 5
# Processed by: cddbd v1.5.2PL0 Copyright (c) Steve Scherf et al.
# Submitted via: ExactAudioCopy v1.0b1
#
DISCID=300e6914
DTITLE=Various Artist - Great Blues Guitarists: String Dazzlers
DYEAR=1991
DGENRE=Blues
TTITLE0=Lonnie Johnson and Eddie Lang - Hot Fingers
TTITLE1=Lonnie Johnson and Eddie Lang - A Handful Of Riffs
TTITLE2=Texas Alexander - Work Ox Blues
TTITLE3=Sylvester Weaver - I'm Busy And You Can't Come In
TTITLE4=Georgia Bill (Blind Willie McTell) - Georgia Rag
TTITLE5=Blind Willie (Blind Willie McTell) - Warm It Up To Me
TTITLE6=Sylvester Weaver - Untitled
TTITLE7=Sylvester Weaver and Walter Beasley - Untitled
TTITLE8=Blind Willie Johnson - When The War Was On
TTITLE9=Blind Willie Johnson - It's Nobody's Fault But Mine
TTITLE10=Big Bill Broonzy - How You Want It Done?
TTITLE11=Big Bill Broonzy - Getting Older Every Day
TTITLE12=Casey Bill Weldon - Guitar Swing
TTITLE13=Lonnie Johnson and Eddie Lang - Bull Frog Moan
TTITLE14=Blind Lemon Jefferson - Black Snake Moan
TTITLE15=Joshua White - Little Brother Blues
TTITLE16=Joshua White - Prodigal Son
TTITLE17=Tampa Red - Denver Blues
TTITLE18=Lonnie Johnson - Away Down In The Alley Blues
TTITLE19=Lonnie Johnson - I Love You, Mary Lou
EXTD=LABEL =Sony Music Entertainment Inc.\nID =ck47060\nUPC =07464-
EXTD=47060-2\nCOPYRIGHT =1991
EXTT0=
EXTT1=
EXTT2=
EXTT3=
EXTT4=
EXTT5=
EXTT6=Previously Unreleased
EXTT7=Previously Unreleased
EXTT8=
EXTT9=
EXTT10=
EXTT11=Previously Unreleased
EXTT12=Previously Unreleased
EXTT13=
EXTT14=
EXTT15=
EXTT16=
EXTT17=
EXTT18=
EXTT19=Previously Unreleased
PLAYORDER=
